<svg width="170" height="50" viewBox="0 0 170 50" fill="none" xmlns="http://www.w3.org/2000/svg">
<path d="M150.545 14.5815V16.9122C152.696 15.1194 155.505 14.0437 158.732 14.0437C165.246 14.0437 169.668 18.3465 169.668 24.8604V44.4621H161.421V26.5337C161.421 23.4859 159.509 21.5735 156.401 21.5735C152.875 21.5735 150.545 24.0835 150.545 27.8484V44.4621H142.298V14.5815H150.545Z" fill="grey"/>
<path d="M137.64 14.8803L135.25 22.1711C134.473 21.8126 133.577 21.5735 132.561 21.5735C128.378 21.5735 125.449 24.8604 125.449 29.5217V44.4621H117.202V14.5815H125.449V17.3305C127.66 15.2389 130.529 14.0437 133.816 14.0437C135.37 14.0437 136.744 14.3425 137.64 14.8803Z" fill="grey"/>
<path d="M110.175 24.0237V44.4621H101.928V42.191C99.5975 43.984 96.6094 44.9999 93.1433 44.9999C86.6892 44.9999 82.5059 41.4738 82.5059 35.9758C82.5059 29.94 87.6453 26.3544 96.4899 26.3544C98.2827 26.3544 100.195 26.5337 101.928 26.7727V25.3982C101.928 22.948 99.8365 21.3943 96.5497 21.3943C93.6812 21.3943 91.6493 22.5895 91.4102 24.5018L83.5218 23.6652C84.3585 17.7489 89.6772 14.0437 97.1473 14.0437C104.976 14.0437 110.175 18.0477 110.175 24.0237ZM101.928 32.3304C100.494 31.9719 98.8206 31.7926 97.2668 31.7926C93.3824 31.7926 91.231 32.9878 91.231 35.0197C91.231 36.8723 92.7847 37.9479 95.5935 37.9479C99.3584 37.9479 101.928 35.9161 101.928 32.9281V32.3304Z" fill="grey"/>
<path d="M77.6545 35.0794C76.28 41.175 70.8418 44.9999 63.6705 44.9999C54.3479 44.9999 48.0132 38.6053 48.0132 29.4619C48.0132 20.3783 54.2283 14.0437 63.312 14.0437C72.9932 14.0437 78.9692 21.215 78.0131 31.6731H56.4993C57.2164 35.3782 59.8458 37.6491 63.9096 37.6491C66.9574 37.6491 69.4075 36.3942 70.0649 34.4221L77.6545 35.0794ZM56.6785 26.4739H70.0052C69.7661 23.4859 67.1964 21.3943 63.551 21.3943C60.0849 21.3943 57.6347 23.3066 56.6785 26.4739Z" fill="grey"/>
<path d="M16.6052 44.4621V2.62964H25.3302V37.1713H44.7521V44.4621H16.6052Z" fill="grey"/>
<path d="M0 4.78085C0 1.9721 1.9721 0 4.78085 0C7.52984 0 9.5617 1.9721 9.5617 4.78085C9.5617 7.52984 7.52984 9.5617 4.78085 9.5617C1.9721 9.5617 0 7.52984 0 4.78085ZM0.657366 44.4621V14.5816H8.90433V44.4621H0.657366Z" fill="grey"/>
</svg>
